<svg width="200" height="250" viewBox="0 0 200 250" fill="none" xmlns="http://www.w3.org/2000/svg">
<g clip-path="url(#clip0_701_182)">
<circle cx="100" cy="100" r="100" fill="#AFF7CB"/>
<g filter="url(#filter0_b_701_182)">
<path fill-rule="evenodd" clip-rule="evenodd" d="M200 100C200 44.7715 155.228 0 100 0C44.7715 0 0 44.7715 0 100V250H200V100Z" fill="white" fill-opacity="0.1"/>
</g>
<path d="M75.5 83.5C75.5 83.3282 75.4118 83.1684 75.2664 83.0769C75.1211 82.9854 74.9389 82.9749 74.7839 83.0491L50.7839 94.5491C50.6104 94.6322 50.5 94.8076 50.5 95V102.5C50.5 102.689 50.607 102.863 50.7764 102.947L74.7764 114.947C74.9314 115.025 75.1155 115.016 75.2629 114.925C75.4103 114.834 75.5 114.673 75.5 114.5V105.5C75.5 105.301 75.3817 105.12 75.1988 105.041L61.2185 98.9831L75.2114 92.4531C75.3875 92.3709 75.5 92.1943 75.5 92V83.5Z" fill="#222222" stroke="#222222" stroke-linejoin="round"/>
<path d="M124 84C124 83.8282 124.088 83.6684 124.234 83.5769C124.379 83.4854 124.561 83.4749 124.716 83.5491L148.716 95.0491C148.89 95.1322 149 95.3076 149 95.5V103C149 103.189 148.893 103.363 148.724 103.447L124.724 115.447C124.569 115.525 124.385 115.516 124.237 115.425C124.09 115.334 124 115.173 124 115V106C124 105.801 124.118 105.62 124.301 105.541L138.281 99.4831L124.289 92.9531C124.113 92.8709 124 92.6943 124 92.5V84Z" fill="#222222" stroke="#222222" stroke-linejoin="round"/>
<path d="M102 77.5C101.777 77.5 101.581 77.6476 101.519 77.8619L89.0194 121.362C88.9761 121.513 89.0061 121.675 89.1006 121.801C89.1951 121.926 89.343 122 89.5 122H97C97.223 122 97.419 121.852 97.4806 121.638L109.981 78.1381C110.024 77.9872 109.994 77.8246 109.899 77.6992C109.805 77.5738 109.657 77.5 109.5 77.5H102Z" fill="#222222" stroke="#222222" stroke-linejoin="round"/>
</g>
<defs>
<filter id="filter0_b_701_182" x="-25" y="-25" width="250" height="300" filterUnits="userSpaceOnUse" color-interpolation-filters="sRGB">
<feFlood flood-opacity="0" result="BackgroundImageFix"/>
<feGaussianBlur in="BackgroundImageFix" stdDeviation="12.5"/>
<feComposite in2="SourceAlpha" operator="in" result="effect1_backgroundBlur_701_182"/>
<feBlend mode="normal" in="SourceGraphic" in2="effect1_backgroundBlur_701_182" result="shape"/>
</filter>
<clipPath id="clip0_701_182">
<rect width="200" height="250" fill="white"/>
</clipPath>
</defs>
</svg>
