<svg width="16" height="16" viewBox="0 0 16 16" fill="none" xmlns="http://www.w3.org/2000/svg">
<path d="M10.982 11.0138C10.9432 11.1075 10.8517 11.1686 10.7502 11.1686H9.16032C8.9814 11.1686 8.85994 10.9867 8.9285 10.8215L10.2298 7.68464C10.2585 7.61538 10.2585 7.53753 10.2298 7.46826L8.8925 4.24466C8.84107 4.1207 8.93217 3.98429 9.06636 3.98429L10.8013 3.98429C10.8907 3.98429 10.9712 4.03846 11.0048 4.12127L12.3693 7.481C12.3941 7.54216 12.3938 7.61064 12.3685 7.67161L10.982 11.0138Z" fill="#383C45"/>
<path fill-rule="evenodd" clip-rule="evenodd" d="M9.16032 10.9176H10.7502L12.1367 7.57544L10.7802 4.23527L9.16032 4.23527L10.4616 7.37209C10.5159 7.50292 10.5159 7.64998 10.4616 7.78082L9.16032 10.9176ZM10.7502 11.1686C10.8517 11.1686 10.9432 11.1075 10.982 11.0138L12.3685 7.67161C12.3938 7.61064 12.3941 7.54216 12.3693 7.481L11.0048 4.12127C10.9712 4.03846 10.8907 3.98429 10.8013 3.98429L9.06636 3.98429C8.93217 3.98429 8.84107 4.1207 8.8925 4.24466L10.2298 7.46826C10.2585 7.53753 10.2585 7.61538 10.2298 7.68464L8.9285 10.8215C8.85994 10.9867 8.9814 11.1686 9.16032 11.1686H10.7502Z" fill="#82FAC7"/>
<path d="M4.89254 4.13912C4.93142 4.0454 5.0229 3.98431 5.12436 3.98431H6.71426C6.89318 3.98431 7.01464 4.1662 6.94608 4.33147L5.64478 7.46828C5.61605 7.53755 5.61605 7.6154 5.64478 7.68466L7.05409 11.0818C7.07123 11.1232 7.04087 11.1686 6.99613 11.1686H5.10341C5.01463 11.1686 4.93459 11.1152 4.90057 11.0332L3.50646 7.67264C3.48092 7.61107 3.48092 7.54187 3.50646 7.4803L4.89254 4.13912Z" fill="#383C45"/>
<path fill-rule="evenodd" clip-rule="evenodd" d="M6.71426 4.23529H5.12436L3.73829 7.57647L5.12436 10.9176H6.71426L5.41296 7.78084C5.35868 7.65 5.35868 7.50294 5.41296 7.37211L6.71426 4.23529ZM5.64478 7.68466C5.61605 7.6154 5.61605 7.53755 5.64478 7.46828L6.94608 4.33147C7.01464 4.1662 6.89318 3.98431 6.71426 3.98431H5.12436C5.0229 3.98431 4.93142 4.0454 4.89254 4.13912L3.50646 7.4803C3.48092 7.54187 3.48092 7.61107 3.50646 7.67264L4.90057 11.0332C4.93459 11.1152 5.01463 11.1686 5.10341 11.1686H6.99613C7.04087 11.1686 7.07123 11.1232 7.05409 11.0818L5.64478 7.68466Z" fill="#82FAC7"/>
<path fill-rule="evenodd" clip-rule="evenodd" d="M15.8535 7.86404C15.9228 7.86404 15.979 7.92023 15.979 7.98953C15.979 9.25037 15.6806 10.4933 15.1082 11.6167C14.5358 12.7401 13.7056 13.7121 12.6856 14.4532C11.6656 15.1943 10.4846 15.6835 9.23932 15.8807C7.99401 16.0779 6.71971 15.9777 5.52058 15.588C5.45467 15.5666 5.4186 15.4958 5.44001 15.4299C5.46143 15.364 5.53223 15.3279 5.59814 15.3493C6.75959 15.7267 7.99387 15.8239 9.20006 15.6328C10.4062 15.4418 11.5501 14.968 12.5381 14.2502C13.5261 13.5323 14.3302 12.5909 14.8846 11.5028C15.439 10.4146 15.728 9.21076 15.728 7.98953C15.728 7.92023 15.7842 7.86404 15.8535 7.86404Z" fill="#82FAC7"/>
<path fill-rule="evenodd" clip-rule="evenodd" d="M2.82072 2.06145C2.8671 2.11295 2.86294 2.1923 2.81143 2.23868C1.90389 3.05584 1.20262 4.07618 0.764974 5.21629C0.327326 6.35641 0.165722 7.58391 0.293374 8.79844C0.421027 10.013 0.834312 11.1801 1.49944 12.2043C2.16456 13.2285 3.06265 14.0807 4.12026 14.6913C4.18028 14.726 4.20084 14.8027 4.16619 14.8628C4.13154 14.9228 4.05479 14.9433 3.99477 14.9087C2.90286 14.2783 1.97565 13.3984 1.28895 12.341C0.60225 11.2835 0.175561 10.0786 0.0437689 8.82468C-0.0880236 7.57075 0.0788218 6.30344 0.530664 5.12635C0.982506 3.94926 1.70652 2.89582 2.6435 2.05216C2.695 2.00579 2.77435 2.00995 2.82072 2.06145Z" fill="#82FAC7"/>
<path fill-rule="evenodd" clip-rule="evenodd" d="M11.1372 0.920015C10.0216 0.423298 8.80421 0.197673 7.58466 0.261587C6.36511 0.325501 5.178 0.677139 4.12039 1.28775C4.06036 1.3224 3.98362 1.30184 3.94896 1.24182C3.91431 1.1818 3.93487 1.10505 3.99489 1.0704C5.08681 0.43998 6.31242 0.0769371 7.57152 0.0109504C8.83063 -0.0550364 10.0875 0.177906 11.2393 0.690733C12.3911 1.20356 13.4052 1.98171 14.1987 2.96156C14.9922 3.94141 15.5425 5.09514 15.8046 6.32842C15.819 6.39621 15.7757 6.46285 15.708 6.47726C15.6402 6.49167 15.5735 6.44839 15.5591 6.3806C15.3052 5.18606 14.7722 4.06858 14.0037 3.11951C13.2351 2.17044 12.2529 1.41673 11.1372 0.920015Z" fill="#82FAC7"/>
<path fill-rule="evenodd" clip-rule="evenodd" d="M8.58001 1.2484C7.69338 1.17225 6.80042 1.27148 5.95214 1.54042C5.10385 1.80936 4.31684 2.24276 3.63605 2.81585C2.95526 3.38895 2.39401 4.09052 1.98435 4.88052C1.57469 5.67053 1.32465 6.53348 1.2485 7.42011C1.17234 8.30675 1.27157 9.1997 1.54051 10.048C1.80946 10.8963 2.24285 11.6833 2.81594 12.3641C3.38904 13.0449 4.09062 13.6061 4.88062 14.0158C5.67062 14.4254 6.53357 14.6755 7.4202 14.7516C8.30684 14.8278 9.19979 14.7286 10.0481 14.4596C10.8964 14.1907 11.6834 13.7573 12.3642 13.1842C13.045 12.6111 13.6062 11.9095 14.0159 11.1195C14.4255 10.3295 14.6756 9.46655 14.7517 8.57992C14.8279 7.69328 14.7286 6.80033 14.4597 5.95204C14.1908 5.10376 13.7574 4.31675 13.1843 3.63596C12.6112 2.95517 11.9096 2.39392 11.1196 1.98426C10.3296 1.5746 9.46664 1.32456 8.58001 1.2484ZM5.87629 1.30118C6.75599 1.02227 7.68202 0.91937 8.60149 0.998344C9.52096 1.07732 10.4159 1.33662 11.2351 1.76145C12.0544 2.18628 12.782 2.76832 13.3763 3.47433C13.9706 4.18033 14.42 4.99649 14.6989 5.87619C14.9778 6.7559 15.0808 7.68192 15.0018 8.60139C14.9228 9.52087 14.6635 10.4158 14.2387 11.235C13.8138 12.0543 13.2318 12.7819 12.5258 13.3762C11.8198 13.9705 11.0036 14.4199 10.1239 14.6989C9.24422 14.9778 8.3182 15.0807 7.39873 15.0017C6.47925 14.9227 5.58434 14.6634 4.76508 14.2386C3.94582 13.8137 3.21826 13.2317 2.62394 12.5257C2.02962 11.8197 1.58017 11.0035 1.30127 10.1238C1.02236 9.24413 0.919461 8.31811 0.998436 7.39863C1.07741 6.47916 1.33672 5.58425 1.76154 4.76499C2.18637 3.94573 2.76841 3.21817 3.47442 2.62385C4.18043 2.02952 4.99658 1.58008 5.87629 1.30118Z" fill="#D9D9D9"/>
<path d="M8.87343 4.0459C8.89601 4.00773 8.93707 3.98431 8.98143 3.98431H10.7789C10.9726 3.98431 11.0933 4.19438 10.9957 4.3617L7.06383 11.1063C7.04134 11.1449 7.00006 11.1686 6.95542 11.1686H5.09902C4.90462 11.1686 4.78402 10.9571 4.88302 10.7898L8.87343 4.0459Z" fill="#383C45"/>
<path fill-rule="evenodd" clip-rule="evenodd" d="M9.12455 4.36078L5.31908 10.7922H6.81121L10.5605 4.36078H9.12455ZM8.98143 3.98431C8.93707 3.98431 8.89601 4.00773 8.87343 4.0459L4.88302 10.7898C4.78402 10.9571 4.90462 11.1686 5.09902 11.1686H6.95542C7.00006 11.1686 7.04134 11.1449 7.06383 11.1063L10.9957 4.3617C11.0933 4.19438 10.9726 3.98431 10.7789 3.98431H8.98143Z" fill="#82FAC7"/>
</svg>
