<!-- sprite.svg -->
<svg xmlns="http://www.w3.org/2000/svg"
  xmlns:xlink="http://www.w3.org/1999/xlink">
  <defs>
    <symbol width="200" height="200" viewBox="0 0 200 200" fill="none"
      xmlns="http://www.w3.org/2000/svg" id="floatArt">
      <g clip-path="url(#clip0_701_182)">
        <circle cx="100" cy="100" r="100" fill="#AFF7CB" />
        <circle cx="100" cy="100" r="100" fill="#AFF7CB" />
        <path
          d="M50.7839 94.5491C50.6104 94.6322 50.5 94.8076 50.5 95V102.5C50.5 102.689 50.607 102.863 50.7764 102.947L74.7764 114.947C74.9314 115.025 75.1155 115.016 75.2629 114.925C75.4103 114.834 75.5 114.673 75.5 114.5V105.5C75.5 105.301 75.3817 105.12 75.1988 105.041L61.2185 98.9831L75.2114 92.4531C75.3875 92.3709 75.5 92.1943 75.5 92V83.5C75.5 83.3282 75.4118 83.1684 75.2664 83.0769C75.1211 82.9854 74.9389 82.9749 74.7839 83.0491L50.7839 94.5491Z"
          fill="#222222" stroke="#222222" stroke-linejoin="round" />
        <path
          d="M148.716 95.0491C148.89 95.1322 149 95.3076 149 95.5V103C149 103.189 148.893 103.363 148.724 103.447L124.724 115.447C124.569 115.525 124.385 115.516 124.237 115.425C124.09 115.334 124 115.173 124 115V106C124 105.801 124.118 105.62 124.301 105.541L138.281 99.4831L124.289 92.9531C124.113 92.8709 124 92.6943 124 92.5V84C124 83.8282 124.088 83.6684 124.234 83.5769C124.379 83.4854 124.561 83.4749 124.716 83.5491L148.716 95.0491Z"
          fill="#222222" stroke="#222222" stroke-linejoin="round" />
        <path
          d="M89.0194 121.362C88.9761 121.513 89.0061 121.675 89.1006 121.801C89.1951 121.926 89.343 122 89.5 122H97C97.223 122 97.419 121.852 97.4806 121.638L109.981 78.1381C110.024 77.9872 109.994 77.8246 109.899 77.6992C109.805 77.5738 109.657 77.5 109.5 77.5H102C101.777 77.5 101.581 77.6476 101.519 77.8619L89.0194 121.362Z"
          fill="#222222" stroke="#222222" stroke-linejoin="round" />
      </g>
      <defs>
        <clipPath id="clip0_701_182">
          <rect width="200" height="200" fill="white" />
        </clipPath>
      </defs>
    </symbol>

    <symbol width="16" height="16" viewBox="0 0 16 16" fill="none"
      xmlns="http://www.w3.org/2000/svg" id="logoNoShadow">
      <path
        d="M10.982 11.0138C10.9432 11.1075 10.8517 11.1686 10.7502 11.1686H9.16032C8.9814 11.1686 8.85994 10.9867 8.9285 10.8215L10.2298 7.68464C10.2585 7.61538 10.2585 7.53753 10.2298 7.46826L8.8925 4.24466C8.84107 4.1207 8.93217 3.98429 9.06636 3.98429L10.8013 3.98429C10.8907 3.98429 10.9712 4.03846 11.0048 4.12127L12.3693 7.481C12.3941 7.54216 12.3938 7.61064 12.3685 7.67161L10.982 11.0138Z"
        fill="#383C45" />
      <path fill-rule="evenodd" clip-rule="evenodd"
        d="M9.16032 10.9176H10.7502L12.1367 7.57544L10.7802 4.23527L9.16032 4.23527L10.4616 7.37209C10.5159 7.50292 10.5159 7.64998 10.4616 7.78082L9.16032 10.9176ZM10.7502 11.1686C10.8517 11.1686 10.9432 11.1075 10.982 11.0138L12.3685 7.67161C12.3938 7.61064 12.3941 7.54216 12.3693 7.481L11.0048 4.12127C10.9712 4.03846 10.8907 3.98429 10.8013 3.98429L9.06636 3.98429C8.93217 3.98429 8.84107 4.1207 8.8925 4.24466L10.2298 7.46826C10.2585 7.53753 10.2585 7.61538 10.2298 7.68464L8.9285 10.8215C8.85994 10.9867 8.9814 11.1686 9.16032 11.1686H10.7502Z"
        fill="#82FAC7" />
      <path
        d="M4.89254 4.13912C4.93142 4.0454 5.0229 3.98431 5.12436 3.98431H6.71426C6.89318 3.98431 7.01464 4.1662 6.94608 4.33147L5.64478 7.46828C5.61605 7.53755 5.61605 7.6154 5.64478 7.68466L7.05409 11.0818C7.07123 11.1232 7.04087 11.1686 6.99613 11.1686H5.10341C5.01463 11.1686 4.93459 11.1152 4.90057 11.0332L3.50646 7.67264C3.48092 7.61107 3.48092 7.54187 3.50646 7.4803L4.89254 4.13912Z"
        fill="#383C45" />
      <path fill-rule="evenodd" clip-rule="evenodd"
        d="M6.71426 4.23529H5.12436L3.73829 7.57647L5.12436 10.9176H6.71426L5.41296 7.78084C5.35868 7.65 5.35868 7.50294 5.41296 7.37211L6.71426 4.23529ZM5.64478 7.68466C5.61605 7.6154 5.61605 7.53755 5.64478 7.46828L6.94608 4.33147C7.01464 4.1662 6.89318 3.98431 6.71426 3.98431H5.12436C5.0229 3.98431 4.93142 4.0454 4.89254 4.13912L3.50646 7.4803C3.48092 7.54187 3.48092 7.61107 3.50646 7.67264L4.90057 11.0332C4.93459 11.1152 5.01463 11.1686 5.10341 11.1686H6.99613C7.04087 11.1686 7.07123 11.1232 7.05409 11.0818L5.64478 7.68466Z"
        fill="#82FAC7" />
      <path fill-rule="evenodd" clip-rule="evenodd"
        d="M15.8535 7.86404C15.9228 7.86404 15.979 7.92023 15.979 7.98953C15.979 9.25037 15.6806 10.4933 15.1082 11.6167C14.5358 12.7401 13.7056 13.7121 12.6856 14.4532C11.6656 15.1943 10.4846 15.6835 9.23932 15.8807C7.99401 16.0779 6.71971 15.9777 5.52058 15.588C5.45467 15.5666 5.4186 15.4958 5.44001 15.4299C5.46143 15.364 5.53223 15.3279 5.59814 15.3493C6.75959 15.7267 7.99387 15.8239 9.20006 15.6328C10.4062 15.4418 11.5501 14.968 12.5381 14.2502C13.5261 13.5323 14.3302 12.5909 14.8846 11.5028C15.439 10.4146 15.728 9.21076 15.728 7.98953C15.728 7.92023 15.7842 7.86404 15.8535 7.86404Z"
        fill="#82FAC7" />
      <path fill-rule="evenodd" clip-rule="evenodd"
        d="M2.82072 2.06145C2.8671 2.11295 2.86294 2.1923 2.81143 2.23868C1.90389 3.05584 1.20262 4.07618 0.764974 5.21629C0.327326 6.35641 0.165722 7.58391 0.293374 8.79844C0.421027 10.013 0.834312 11.1801 1.49944 12.2043C2.16456 13.2285 3.06265 14.0807 4.12026 14.6913C4.18028 14.726 4.20084 14.8027 4.16619 14.8628C4.13154 14.9228 4.05479 14.9433 3.99477 14.9087C2.90286 14.2783 1.97565 13.3984 1.28895 12.341C0.60225 11.2835 0.175561 10.0786 0.0437689 8.82468C-0.0880236 7.57075 0.0788218 6.30344 0.530664 5.12635C0.982506 3.94926 1.70652 2.89582 2.6435 2.05216C2.695 2.00579 2.77435 2.00995 2.82072 2.06145Z"
        fill="#82FAC7" />
      <path fill-rule="evenodd" clip-rule="evenodd"
        d="M11.1372 0.920015C10.0216 0.423298 8.80421 0.197673 7.58466 0.261587C6.36511 0.325501 5.178 0.677139 4.12039 1.28775C4.06036 1.3224 3.98362 1.30184 3.94896 1.24182C3.91431 1.1818 3.93487 1.10505 3.99489 1.0704C5.08681 0.43998 6.31242 0.0769371 7.57152 0.0109504C8.83063 -0.0550364 10.0875 0.177906 11.2393 0.690733C12.3911 1.20356 13.4052 1.98171 14.1987 2.96156C14.9922 3.94141 15.5425 5.09514 15.8046 6.32842C15.819 6.39621 15.7757 6.46285 15.708 6.47726C15.6402 6.49167 15.5735 6.44839 15.5591 6.3806C15.3052 5.18606 14.7722 4.06858 14.0037 3.11951C13.2351 2.17044 12.2529 1.41673 11.1372 0.920015Z"
        fill="#82FAC7" />
      <path fill-rule="evenodd" clip-rule="evenodd"
        d="M8.58001 1.2484C7.69338 1.17225 6.80042 1.27148 5.95214 1.54042C5.10385 1.80936 4.31684 2.24276 3.63605 2.81585C2.95526 3.38895 2.39401 4.09052 1.98435 4.88052C1.57469 5.67053 1.32465 6.53348 1.2485 7.42011C1.17234 8.30675 1.27157 9.1997 1.54051 10.048C1.80946 10.8963 2.24285 11.6833 2.81594 12.3641C3.38904 13.0449 4.09062 13.6061 4.88062 14.0158C5.67062 14.4254 6.53357 14.6755 7.4202 14.7516C8.30684 14.8278 9.19979 14.7286 10.0481 14.4596C10.8964 14.1907 11.6834 13.7573 12.3642 13.1842C13.045 12.6111 13.6062 11.9095 14.0159 11.1195C14.4255 10.3295 14.6756 9.46655 14.7517 8.57992C14.8279 7.69328 14.7286 6.80033 14.4597 5.95204C14.1908 5.10376 13.7574 4.31675 13.1843 3.63596C12.6112 2.95517 11.9096 2.39392 11.1196 1.98426C10.3296 1.5746 9.46664 1.32456 8.58001 1.2484ZM5.87629 1.30118C6.75599 1.02227 7.68202 0.91937 8.60149 0.998344C9.52096 1.07732 10.4159 1.33662 11.2351 1.76145C12.0544 2.18628 12.782 2.76832 13.3763 3.47433C13.9706 4.18033 14.42 4.99649 14.6989 5.87619C14.9778 6.7559 15.0808 7.68192 15.0018 8.60139C14.9228 9.52087 14.6635 10.4158 14.2387 11.235C13.8138 12.0543 13.2318 12.7819 12.5258 13.3762C11.8198 13.9705 11.0036 14.4199 10.1239 14.6989C9.24422 14.9778 8.3182 15.0807 7.39873 15.0017C6.47925 14.9227 5.58434 14.6634 4.76508 14.2386C3.94582 13.8137 3.21826 13.2317 2.62394 12.5257C2.02962 11.8197 1.58017 11.0035 1.30127 10.1238C1.02236 9.24413 0.919461 8.31811 0.998436 7.39863C1.07741 6.47916 1.33672 5.58425 1.76154 4.76499C2.18637 3.94573 2.76841 3.21817 3.47442 2.62385C4.18043 2.02952 4.99658 1.58008 5.87629 1.30118Z"
        fill="#D9D9D9" />
      <path
        d="M8.87343 4.0459C8.89601 4.00773 8.93707 3.98431 8.98143 3.98431H10.7789C10.9726 3.98431 11.0933 4.19438 10.9957 4.3617L7.06383 11.1063C7.04134 11.1449 7.00006 11.1686 6.95542 11.1686H5.09902C4.90462 11.1686 4.78402 10.9571 4.88302 10.7898L8.87343 4.0459Z"
        fill="#383C45" />
      <path fill-rule="evenodd" clip-rule="evenodd"
        d="M9.12455 4.36078L5.31908 10.7922H6.81121L10.5605 4.36078H9.12455ZM8.98143 3.98431C8.93707 3.98431 8.89601 4.00773 8.87343 4.0459L4.88302 10.7898C4.78402 10.9571 4.90462 11.1686 5.09902 11.1686H6.95542C7.00006 11.1686 7.04134 11.1449 7.06383 11.1063L10.9957 4.3617C11.0933 4.19438 10.9726 3.98431 10.7789 3.98431H8.98143Z"
        fill="#82FAC7" />
    </symbol>

    <symbol width="64" height="64" viewBox="0 0 64 64" fill="none"
      xmlns="http://www.w3.org/2000/svg" id="fragmentArt">
      <g clip-path="url(#clip0_713_122)">
        <circle cx="32" cy="32" r="32" fill="#81FFB2" />
        <path
          d="M17 30.3563L24.5618 26.7329V29.4111L19.8357 31.6166L24.5618 33.6646V36.5003L17 32.7194V30.3563Z"
          fill="#222222" />
        <path fill-rule="evenodd" clip-rule="evenodd"
          d="M24.8416 26.2885C24.9943 26.3847 25.087 26.5525 25.087 26.7329V29.411C25.087 29.6151 24.9688 29.8006 24.7839 29.8869L21.1155 31.5988L24.7706 33.1827C24.9627 33.266 25.087 33.4553 25.087 33.6646V36.5003C25.087 36.6823 24.9927 36.8513 24.8379 36.947C24.6831 37.0427 24.4898 37.0514 24.327 36.97L16.7651 33.189C16.5872 33.1001 16.4749 32.9183 16.4749 32.7194V30.3563C16.4749 30.1542 16.5908 29.97 16.7731 29.8827L24.3349 26.2593C24.4976 26.1814 24.689 26.1924 24.8416 26.2885ZM19.8357 31.6166L24.5618 29.411V26.7329L17 30.3563V32.7194L24.5618 36.5003V33.6646L19.8357 31.6166Z"
          fill="#222222" />
        <path
          d="M47.72 30.5138L40.1581 26.8904V29.5686L44.8843 31.7741L40.1581 33.8221V36.6578L47.72 32.8769V30.5138Z"
          fill="#222222" />
        <path fill-rule="evenodd" clip-rule="evenodd"
          d="M39.8783 26.4461C39.7256 26.5423 39.633 26.7101 39.633 26.8905V29.5686C39.633 29.7727 39.7512 29.9582 39.9361 30.0445L43.6045 31.7564L39.9493 33.3403C39.7573 33.4236 39.633 33.6129 39.633 33.8222V36.6579C39.633 36.8399 39.7273 37.0089 39.8821 37.1046C40.0369 37.2003 40.2302 37.2089 40.393 37.1276L47.9548 33.3466C48.1327 33.2577 48.2451 33.0759 48.2451 32.8769V30.5139C48.2451 30.3118 48.1292 30.1276 47.9469 30.0403L40.3851 26.4169C40.2223 26.3389 40.031 26.35 39.8783 26.4461ZM44.8843 31.7742L40.1581 29.5686V26.8905L47.72 30.5139V32.8769L40.1581 36.6579V33.8222L44.8843 31.7742Z"
          fill="#222222" />
        <path d="M29.1305 38.7058L33.069 25H35.432L31.4936 38.7058H29.1305Z" fill="#222222" />
        <path fill-rule="evenodd" clip-rule="evenodd"
          d="M32.5642 24.855C32.6289 24.6299 32.8348 24.4749 33.0689 24.4749H35.432C35.5969 24.4749 35.7523 24.5523 35.8515 24.6841C35.9507 24.8158 35.9823 24.9865 35.9367 25.145L31.9983 38.8509C31.9336 39.0759 31.7277 39.231 31.4936 39.231H29.1305C28.9656 39.231 28.8102 39.1535 28.711 39.0217C28.6118 38.89 28.5802 38.7193 28.6258 38.5608L32.5642 24.855ZM29.1305 38.7058H31.4936L35.432 25H33.0689L29.1305 38.7058Z"
          fill="#222222" />
      </g>
      <defs>
        <clipPath id="clip0_713_122">
          <rect width="64" height="64" fill="white" />
        </clipPath>
      </defs>
    </symbol>
  </defs>
</svg>